Coordinates
version=1
nRows=20
nColumns=34
inDegrees=yes

Units are S.I. units (second, meters, Newtons, ...)
If the header above contains a line with 'inDegrees', this indicates whether rotational values are in degrees (yes) or radians (no).

endheader
time	pelvis_tilt	pelvis_list	pelvis_rotation	pelvis_tx	pelvis_ty	pelvis_tz	hip_flexion_r	hip_adduction_r	hip_rotation_r	knee_angle_r	ankle_angle_r	subtalar_angle_r	mtp_angle_r	hip_flexion_l	hip_adduction_l	hip_rotation_l	knee_angle_l	ankle_angle_l	subtalar_angle_l	mtp_angle_l	lumbar_extension	lumbar_bending	lumbar_rotation	arm_flex_r	arm_add_r	arm_rot_r	elbow_flex_r	pro_sup_r	arm_flex_l	arm_add_l	arm_rot_l	elbow_flex_l	pro_sup_l
      6.85000000	    -25.32848137	      2.50575558	      0.82467107	      0.54762658	      0.95770386	     -0.04435988	     61.19594127	    -19.20867071	    -14.52320042	     60.84964900	     23.18674054	    -19.65208289	      0.00000000	     61.90316644	    -12.35460976	    -13.00608408	     62.05870515	     24.89865553	    -11.33365866	      0.00000000	    -14.07168577	     -1.84827027	     -6.51318972	     95.72482496	      2.36911773	     28.03960439	     52.50254678	     75.56469591	    -76.84056134	   -171.17936749	   -133.24452175	     49.08256709	     23.60582838
      6.86666670	    -26.41825451	      2.60883963	      1.17443195	      0.52812556	      0.93860866	     -0.05141881	     64.65729448	    -20.00578637	    -14.21976294	     63.64806091	     23.40571994	    -20.16470980	      0.00000000	     65.39220077	    -12.32668082	    -12.67732648	     64.92724419	     26.98882930	     -9.86845305	      0.00000000	    -14.96128921	     -1.63757159	     -6.80640216	     98.67219871	      2.89244403	     28.43719521	     50.59985094	     75.67942116	    -74.57228058	   -171.85382158	   -133.45712388	     47.20617790	     23.38872480
      6.88333330	    -27.20403998	      2.37926091	      2.12968770	      0.51202727	      0.92232362	     -0.05239876	     68.54660530	    -20.86718530	    -13.77778171	     67.05140774	     22.56888346	    -22.13382193	      0.00000000	     68.91152807	    -11.87649966	    -11.72110413	     67.46075432	     28.19017657	     -9.03328159	      0.00000000	    -16.80563435	     -1.12833078	     -6.02188826	    103.27460000	      0.88336844	     30.83189576	     51.49741153	     75.79575939	    -71.19572357	   -174.43371100	   -133.86249527	     45.08593584	     23.09728129
      6.90000000	    -28.53204315	      2.29776146	      3.26942354	      0.51297466	      0.90630875	     -0.05220679	     72.30117033	    -21.78780205	    -13.11786630	     70.11133812	     22.38828583	    -23.71207185	      0.00000000	     72.36037056	    -11.25169785	    -10.90758305	     69.70380614	     29.47169978	     -7.67037206	      0.00000000	    -17.51652061	     -0.43889866	     -6.34084673	    105.35530832	      0.39817372	     31.03612544	     51.70254236	     75.72741830	    -69.08971817	   -175.02542613	   -134.29841454	     44.45756512	     22.90490476
      6.91666670	    -29.53680774	      2.09780235	      3.83141798	      0.48498895	      0.88651605	     -0.04681829	     75.97742261	    -22.01483641	    -12.54091058	     72.31004040	     22.67175197	    -23.70507761	      0.00000000	     76.36419779	    -11.22812541	    -10.10925553	     72.29786909	     29.51557217	     -7.18666925	      0.00000000	    -18.88704518	     -0.18357085	     -5.99265217	    108.81987685	     -0.37917351	     31.85168663	     50.23518090	     75.32499831	    -65.60432674	   -177.17008762	   -134.61156917	     41.21342447	     22.30093612
      6.93333330	    -31.10091257	      1.71503035	      4.53673704	      0.48729038	      0.87347083	     -0.04712123	     79.40460525	    -22.28676972	    -12.16594375	     74.21297171	     23.01680666	    -24.42684716	      0.00000000	     80.09821578	    -11.06396258	     -9.22467315	     74.34519211	     29.81940666	     -6.52097863	      0.00000000	    -19.44727565	      0.59445971	     -5.99940608	    111.11035193	     -0.59412143	     31.99184002	     50.57097098	     74.98985340	    -62.98538146	   -177.76010306	   -134.28207195	     40.11352922	     22.00016159
      6.95000000	    -32.27018285	      1.60201067	      5.00815209	      0.47122813	      0.84869256	     -0.04820520	     83.05251973	    -22.31478822	    -10.85485393	     76.66356081	     23.66328342	    -24.43879080	      0.00000000	     83.96842998	    -10.94156527	     -8.59088664	     77.06446410	     30.35076766	     -6.24199131	      0.00000000	    -20.35560671	      0.79053374	     -5.63725673	    114.36422290	     -1.05735033	     32.52696300	     48.87084417	     74.15269744	    -60.07994524	   -179.56486013	   -134.58178461	     37.90364218	     21.20979374
      6.96666670	    -33.51423844	      1.23533187	      5.52778453	      0.47182079	      0.82577803	     -0.04791220	     87.15523325	    -22.53025063	     -9.79105272	     79.98484927	     24.07370880	    -25.20766230	      0.00000000	     87.91193654	    -10.90533197	     -7.66036080	     79.99268989	     30.78951276	     -6.25896377	      0.00000000	    -20.63204223	      1.52249636	     -5.58871365	    117.16906830	     -1.04963650	     33.74123987	     48.04364059	     71.69671763	    -57.89957209	   -179.75138079	   -133.78771351	     36.93887464	     19.53374028
      6.98333330	    -34.98563147	      0.81180019	      5.97483292	      0.47239864	      0.81343468	     -0.04864093	     90.20162440	    -22.74494858	     -9.19552158	     82.25922241	     24.63810739	    -25.81624955	      0.00000000	     91.49422987	    -10.69869031	     -6.73824634	     82.55003443	     30.91926687	     -6.36257770	      0.00000000	    -20.14752994	      2.05465698	     -5.16704686	    117.79174389	     -1.53811588	     32.96392732	     48.15145114	     71.15797756	    -57.54819622	   -180.20974652	   -134.77248736	     37.43686893	     19.17018581
      7.00000000	    -36.02232853	      0.44458485	      6.63318147	      0.47254649	      0.80024550	     -0.04966094	     92.79805684	    -23.12203156	     -8.52309075	     84.51494379	     23.97617113	    -27.82052685	      0.00000000	     93.86179785	    -10.35010244	     -6.17017490	     84.14870207	     31.07742245	     -6.09448788	      0.00000000	    -20.09416081	      2.61911682	     -5.35062806	    118.12417784	     -1.52427965	     32.56216299	     48.93937559	     70.71198669	    -57.56385014	   -180.35015110	   -136.10100606	     38.10512074	     18.88169014
      7.01666670	    -37.31862814	      0.25376712	      6.85490874	      0.46274354	      0.78171162	     -0.04607735	     95.85830070	    -22.97192638	     -7.54054585	     86.60572408	     23.91551438	    -28.68506395	      0.00000000	     96.62058675	    -10.25610973	     -5.59661514	     85.74996898	     30.90514343	     -6.53760925	      0.00000000	    -20.20667396	      2.76337995	     -5.74896022	    118.58825247	     -1.44727090	     31.42558413	     50.09047429	     70.22830551	    -56.61324845	   -179.69582142	   -136.75864213	     39.68020207	     18.91814669
      7.03333330	    -38.40767841	      0.03467624	      6.92551938	      0.46244235	      0.75459893	     -0.04574244	     99.41852171	    -22.75204452	     -6.50284730	     89.56216530	     24.53161843	    -28.99137451	      0.00000000	     99.81146871	    -10.36854366	     -4.64108498	     88.43339730	     31.10621216	     -6.84644546	      0.00000000	    -20.17876690	      2.88127616	     -5.52567859	    120.40209689	     -1.47744143	     30.71069164	     48.80374176	     69.92402646	    -55.28699490	   -180.20996659	   -137.00778457	     39.59065301	     18.92769200
      7.05000000	    -39.38533301	      0.04148082	      6.96658983	      0.46118468	      0.74240975	     -0.05382617	    102.22403236	    -23.03923838	     -5.62062072	     91.58161019	     24.92358059	    -28.37921486	      0.00000000	    102.51333859	    -10.12244155	     -4.27681083	     90.49382623	     31.36212848	     -7.52150093	      0.00000000	    -20.19584998	      3.00518411	     -6.04273327	    121.17929756	     -1.35017814	     30.13765393	     49.32528661	     69.68304077	    -54.55299769	   -179.62295615	   -137.38388999	     40.47801351	     19.08702242
      7.06666670	    -39.90980406	      0.05298288	      6.87178345	      0.46074632	      0.73401060	     -0.05349072	    104.04512198	    -23.23926094	     -5.01949057	     93.05453423	     25.32659192	    -27.91997370	      0.00000000	    104.13203450	    -10.02278272	     -3.99780668	     91.94902547	     31.29087586	     -8.03914001	      0.00000000	    -21.17029751	      3.27481955	     -6.87879973	    121.93377193	     -0.98320133	     28.85380475	     50.31814849	     69.53211872	    -52.89277166	   -178.25131971	   -136.35519475	     42.13988187	     19.60518517
      7.08333330	    -40.24849347	      0.28550155	      6.65929474	      0.45041656	      0.70762240	     -0.04902348	    106.65914032	    -23.18232848	     -4.10750862	     95.28560822	     26.02701944	    -27.46039690	      0.00000000	    106.23019500	    -10.12898482	     -3.59006674	     93.92277757	     31.53319431	     -8.52943523	      0.00000000	    -21.97287076	      3.15585532	     -8.81100966	    122.15894644	      0.54907951	     27.82850180	     52.23569690	     69.61782130	    -50.86620320	   -176.13929325	   -134.62002004	     43.40851356	     20.26454803
      7.10000000	    -41.31063379	      0.21027112	      6.21181193	      0.45963718	      0.68819448	     -0.04514240	    109.46682766	    -22.80219090	     -3.81581530	     97.76317304	     26.07445200	    -28.65290641	      0.00000000	    108.97496420	    -10.81001038	     -2.76009970	     96.02898558	     31.92617857	     -8.66200191	      0.00000000	    -22.08263354	      3.10828079	     -8.43204593	    123.82460963	      0.55517324	     26.95702831	     51.70638022	     69.96140653	    -48.29428480	   -176.29191848	   -132.83211112	     42.68996924	     20.86314646
      7.11666670	    -42.03845771	      0.36243205	      6.11909642	      0.45825449	      0.67555600	     -0.04517493	    111.83744600	    -22.53077745	     -3.21350033	     99.96188724	     26.21040669	    -29.89278546	      0.00000000	    111.04703443	    -11.24187764	     -2.47188175	     97.87506553	     32.43739455	     -8.26426283	      0.00000000	    -23.12322088	      2.90799403	     -8.66971041	    126.73577676	      0.30218553	     27.59131322	     50.22402960	     70.56235261	    -45.24102628	   -177.12908024	   -132.05934007	     40.81668151	     21.29152476
      7.13333330	    -42.44320918	      0.21168233	      6.36122719	      0.45663019	      0.65474494	     -0.04526195	    114.34905237	    -22.73650004	     -2.64535494	    102.48772927	     26.91927936	    -29.98103832	      0.00000000	    113.20075522	    -11.41134333	     -1.92732722	    100.10115879	     32.58343189	     -8.28176224	      0.00000000	    -23.51114186	      3.22718027	     -8.95786464	    128.52007882	     -0.49439579	     28.52596627	     48.94774323	     71.20694167	    -43.53540071	   -177.42411860	   -131.75078374	     40.04083690	     21.78237204
      7.15000000	    -42.39751231	     -0.52825036	      6.64487055	      0.45529719	      0.62682877	     -0.04589267	    116.71387600	    -22.94074840	     -2.25565233	    105.84401835	     27.81741745	    -30.24363496	      0.00000000	    116.01589141	    -11.33881450	     -0.62846200	    103.35392062	     32.66061405	     -8.01306380	      0.00000000	    -23.92810943	      4.30820090	     -9.19463804	    129.15932429	      0.08561396	     28.86319289	     50.04737249	     71.64003315	    -42.36517687	   -177.17411959	   -131.38327398	     39.60883597	     22.21016106
      7.16666670	    -42.03661020	     -0.95999464	      6.70168495	      0.44546885	      0.61200803	     -0.04166584	    118.71716087	    -22.62509244	     -1.73848907	    108.58751808	     28.30034034	    -30.24946386	      0.00000000	    118.32572384	    -11.41154487	      0.43661125	    105.87825498	     32.17385957	     -7.95366589	      0.00000000	    -24.88618819	      4.71507577	     -9.72241497	    129.82754412	      0.08236439	     28.85738099	     50.72430378	     71.86761535	    -41.49736400	   -177.42543057	   -131.66071518	     39.68734793	     22.41636371
